<svg width="50" height="50" viewBox="0 0 50 50" fill="none" xmlns="http://www.w3.org/2000/svg">
<path d="M45.9958 18.1675C44.4092 11.1576 39.7959 6.51892 34.7771 4.2998C41.0176 9.8012 46.7664 20.4476 39.6143 30.1478C36.6474 34.1736 30.7142 35.7645 28.2286 34.642C28.2286 34.642 32.0714 33.8255 34.4615 31.7343C39.1094 27.3317 40.6625 20.2395 36.9421 13.7919C36.422 12.8893 35.8042 12.0467 35.0998 11.2795C35.0899 11.268 35.0816 11.2564 35.0718 11.2455C32.4572 8.12464 28.8664 6.26192 25.0082 5.69025C19.9992 4.74846 13.5403 5.97307 8.70307 10.4492C3.42955 15.3301 1.72165 21.6469 2.31107 27.1066C3.95147 18.9473 10.2919 8.64304 22.2631 9.98901C27.2315 10.5486 31.5736 14.894 31.8459 17.6096C31.8459 17.6096 28.9498 13.0621 21.767 13.0621C21.6352 13.0643 21.357 13.0752 21.3493 13.0752L21.2577 13.0807C16.5873 13.2636 12.047 15.7079 9.27712 20.5085C8.75581 21.4105 8.33544 22.3672 8.02364 23.3614L8.00827 23.402C6.61484 27.2285 6.79815 31.2714 8.23164 34.9001C9.92143 39.7124 14.2115 44.6975 20.5036 46.6503C27.3648 48.7799 33.686 47.1006 38.116 43.8612C30.2334 46.5174 18.1454 46.1764 13.3246 35.1302C11.3242 30.5448 12.9135 24.6091 15.1285 23.0154C15.1285 23.0154 12.6402 27.7985 16.2327 34.0226C18.6925 38.1324 23.1571 40.9738 28.8274 40.9738C29.1007 40.9738 31.2905 40.803 32.0797 40.6261L32.1236 40.6201C36.1315 39.9139 39.5391 37.7338 41.9626 34.6772C45.2829 30.8079 47.4524 24.597 45.9958 18.1675V18.1675Z" fill="#F1023D"/>
</svg>
