<?xml version="1.0" encoding="UTF-8"?>
<svg width="100" height="100" viewBox="0 0 100 100" fill="none" xmlns="http://www.w3.org/2000/svg">
    <path
        d="M85.0781 14.5312C75.7812 5.23438 63.4375 0 50.3125 0C22.8125 0 0.46875 22.3438 0.46875 49.8438C0.46875 58.5938 2.8125 67.1875 7.1875 74.6875L0 100L25.9375 92.9688C33.125 96.875 41.5625 99 50.1562 99H50.3125C77.8125 99 100 76.6562 100 49.1562C100 36.0312 94.375 23.8281 85.0781 14.5312Z"
        fill="#25D366" />
    <path
        d="M50.3125 90.625C42.8125 90.625 35.4688 88.5938 29.0625 84.6875L27.5 83.75L11.875 87.8125L16.0938 72.5L15 70.7812C10.625 64.0625 8.28125 56.25 8.28125 48.2812C8.28125 26.875 27.1875 9.375 50.4688 9.375C61.4062 9.375 71.7188 13.75 79.375 21.4062C87.0312 29.0625 91.5625 39.375 91.5625 50.3125C91.4062 71.7188 72.5 90.625 50.3125 90.625ZM73.125 58.75C71.875 58.125 65.7812 55.1562 64.6875 54.6875C63.5938 54.2188 62.8125 54.0625 62.0312 55.3125C61.25 56.5625 58.9062 59.375 58.125 60.1562C57.3438 60.9375 56.5625 61.0938 55.3125 60.4688C47.6562 56.7188 42.6562 53.75 37.6562 45C36.4062 42.6562 38.9062 42.8125 41.25 38.125C41.7188 37.3438 41.5625 36.7188 41.25 36.0938C40.9375 35.4688 38.4375 29.375 37.5 26.875C36.5625 24.375 35.625 24.6875 34.8438 24.6875C34.0625 24.6875 33.2812 24.6875 32.5 24.6875C31.7188 24.6875 30.4688 25 29.375 26.25C28.2812 27.5 25.1562 30.4688 25.1562 36.5625C25.1562 42.6562 29.5312 48.5938 30.1562 49.375C30.7812 50.1562 38.4375 62.1875 50.3125 67.3438C54.0625 69.0625 57.0312 70 59.375 70.625C63.125 71.7188 66.5625 71.5625 69.375 71.25C72.5 70.7812 77.5 68.125 78.4375 65.1562C79.375 62.1875 79.375 59.6875 79.0625 59.2188C78.75 58.75 77.9688 58.4375 76.7188 57.8125L73.125 58.75Z"
        fill="white" />
</svg>